<svg xmlns="http://www.w3.org/2000/svg" xmlns:xlink="http://www.w3.org/1999/xlink" version="1.1" width="512px" height="512px" style="shape-rendering:geometricPrecision; text-rendering:geometricPrecision; image-rendering:optimizeQuality; fill-rule:evenodd; clip-rule:evenodd">
    <g><path style="opacity:0.994" fill="#f44336" d="M 185.5,-0.5 C 189.167,-0.5 192.833,-0.5 196.5,-0.5C 215.989,7.33503 235.655,15.0017 255.5,22.5C 275.345,15.0017 295.011,7.33503 314.5,-0.5C 318.167,-0.5 321.833,-0.5 325.5,-0.5C 329.061,1.54988 332.228,4.21655 335,7.5C 346.806,22.9407 358.973,38.1073 371.5,53C 391.099,56.6555 410.766,59.9888 430.5,63C 438.902,63.4084 444.402,67.5751 447,75.5C 450.452,96.8818 454.119,118.215 458,139.5C 472.893,152.027 488.059,164.194 503.5,176C 506.783,178.772 509.45,181.939 511.5,185.5C 511.5,189.167 511.5,192.833 511.5,196.5C 503.665,215.989 495.998,235.655 488.5,255.5C 495.998,275.345 503.665,295.011 511.5,314.5C 511.5,318.167 511.5,321.833 511.5,325.5C 509.45,329.061 506.783,332.228 503.5,335C 488.059,346.806 472.893,358.973 458,371.5C 454.345,391.099 451.011,410.766 448,430.5C 447.592,438.902 443.425,444.402 435.5,447C 414.118,450.452 392.785,454.119 371.5,458C 358.973,472.893 346.806,488.059 335,503.5C 332.228,506.783 329.061,509.45 325.5,511.5C 321.5,511.5 317.5,511.5 313.5,511.5C 294.425,503.469 275.092,495.802 255.5,488.5C 235.655,495.998 215.989,503.665 196.5,511.5C 192.833,511.5 189.167,511.5 185.5,511.5C 181.939,509.45 178.772,506.783 176,503.5C 164.194,488.059 152.027,472.893 139.5,458C 119.901,454.345 100.234,451.011 80.5,448C 72.0983,447.592 66.5983,443.425 64,435.5C 60.5442,414.098 56.8776,392.764 53,371.5C 38.1073,358.973 22.9407,346.806 7.5,335C 4.21655,332.228 1.54988,329.061 -0.5,325.5C -0.5,321.833 -0.5,318.167 -0.5,314.5C 7.33503,295.011 15.0017,275.345 22.5,255.5C 15.0017,235.655 7.33503,215.989 -0.5,196.5C -0.5,192.833 -0.5,189.167 -0.5,185.5C 1.54988,181.939 4.21655,178.772 7.5,176C 22.9407,164.194 38.1073,152.027 53,139.5C 56.6521,119.921 59.9855,100.254 63,80.5C 63.4084,72.0983 67.5751,66.5983 75.5,64C 96.9022,60.5442 118.236,56.8776 139.5,53C 152.027,38.1073 164.194,22.9407 176,7.5C 178.772,4.21655 181.939,1.54988 185.5,-0.5 Z"/></g>
    <g><path style="opacity:1" fill="#faf8f8" d="M 200.5,127.5 C 230.785,126.702 248.951,141.035 255,170.5C 255.625,199.413 241.792,216.913 213.5,223C 183.106,223.939 165.273,209.439 160,179.5C 159.847,151.491 173.347,134.158 200.5,127.5 Z"/></g>
    <g><path style="opacity:1" fill="#faf8f8" d="M 331.5,127.5 C 348.569,128.059 354.402,136.392 349,152.5C 295.667,227.167 242.333,301.833 189,376.5C 179.968,385.765 170.968,385.765 162,376.5C 159.303,371.295 158.969,365.961 161,360.5C 214.667,285.167 268.333,209.833 322,134.5C 324.529,131.115 327.696,128.782 331.5,127.5 Z"/></g>
    <g><path style="opacity:1" fill="#f44639" d="M 203.5,159.5 C 219.157,159.649 225.323,167.315 222,182.5C 216.134,191.564 208.3,193.731 198.5,189C 189.618,180.626 189.285,171.96 197.5,163C 199.432,161.541 201.432,160.375 203.5,159.5 Z"/></g>
    <g><path style="opacity:1" fill="#faf8f8" d="M 296.5,287.5 C 326.785,286.702 344.951,301.035 351,330.5C 351.625,359.413 337.792,376.913 309.5,383C 280.215,383.94 262.382,370.106 256,341.5C 255.226,312.69 268.726,294.69 296.5,287.5 Z"/></g>
    <g><path style="opacity:1" fill="#f44639" d="M 299.5,319.5 C 315.145,319.639 321.312,327.305 318,342.5C 312.134,351.564 304.3,353.731 294.5,349C 285.618,340.626 285.285,331.96 293.5,323C 295.432,321.541 297.432,320.375 299.5,319.5 Z"/></g>
</svg>